<svg width="8" height="71" viewBox="0 0 8 71" fill="none" xmlns="http://www.w3.org/2000/svg">
<path d="M5.52596 10H4.08596V3.145H1.73096V2.11C2.39096 2.1 2.94596 1.93 3.39596 1.6C3.84596 1.26 4.12596 0.82 4.23596 0.28H5.52596V10ZM7.25805 29.365L2.11305 40H0.748047L5.89305 29.365H7.25805ZM3.22949 65.485L2.50949 64.27L5.37449 61.63H0.724492V60.28H7.32449V61.6L4.54949 64.165C5.33949 64.165 6.03449 64.425 6.63449 64.945C7.24449 65.465 7.54949 66.19 7.54949 67.12C7.54949 67.98 7.23449 68.715 6.60449 69.325C5.97449 69.935 5.11449 70.24 4.02449 70.24C2.95449 70.24 2.09449 69.945 1.44449 69.355C0.804492 68.755 0.459492 68.03 0.409492 67.18L1.84949 66.85C1.87949 67.48 2.09449 67.99 2.49449 68.38C2.90449 68.76 3.40949 68.95 4.00949 68.95C4.64949 68.95 5.14949 68.78 5.50949 68.44C5.87949 68.09 6.06449 67.66 6.06449 67.15C6.06449 66.56 5.86949 66.11 5.47949 65.8C5.08949 65.49 4.62449 65.335 4.08449 65.335C3.79449 65.335 3.50949 65.385 3.22949 65.485Z" fill="#005587"/>
</svg>
