<svg width="35" height="12" viewBox="0 0 35 12" fill="none" xmlns="http://www.w3.org/2000/svg">
<path d="M4.10066 11.3748H2.66066V4.51976H0.305664V3.48476C0.965664 3.47476 1.52066 3.30476 1.97066 2.97476C2.42066 2.63476 2.70066 2.19476 2.81066 1.65476H4.10066V11.3748ZM19.2288 0.739755L14.0838 11.3748H12.7188L17.8638 0.739755H19.2288ZM30.0977 6.85976L29.3777 5.64476L32.2427 3.00476H27.5927V1.65476H34.1927V2.97476L31.4177 5.53976C32.2077 5.53976 32.9027 5.79976 33.5027 6.31976C34.1127 6.83976 34.4177 7.56476 34.4177 8.49476C34.4177 9.35476 34.1027 10.0898 33.4727 10.6998C32.8427 11.3098 31.9827 11.6148 30.8927 11.6148C29.8227 11.6148 28.9627 11.3198 28.3127 10.7298C27.6727 10.1298 27.3277 9.40476 27.2777 8.55476L28.7177 8.22476C28.7477 8.85476 28.9627 9.36476 29.3627 9.75476C29.7727 10.1348 30.2777 10.3248 30.8777 10.3248C31.5177 10.3248 32.0177 10.1548 32.3777 9.81476C32.7477 9.46476 32.9327 9.03476 32.9327 8.52476C32.9327 7.93476 32.7377 7.48476 32.3477 7.17476C31.9577 6.86476 31.4927 6.70976 30.9527 6.70976C30.6627 6.70976 30.3777 6.75976 30.0977 6.85976Z" fill="#005587"/>
</svg>
