<svg fill="none" height="71" viewBox="0 0 8 71" width="8" xmlns="http://www.w3.org/2000/svg"><path d="m5.52596 10h-1.44v-6.855h-2.355v-1.035c.66-.01 1.215-.18 1.665-.51.45-.34.73-.78.84-1.32h1.29zm1.73209 19.365-5.145 10.635h-1.365003l5.145003-10.635zm-4.02856 36.12-.72-1.215 2.865-2.64h-4.649998v-1.35h6.599998v1.32l-2.775 2.565c.79 0 1.485.26 2.085.78.61.52.915 1.245.915 2.175 0 .86-.315 1.595-.945 2.205s-1.49.915-2.58.915c-1.07 0-1.93-.295-2.58-.885-.639998-.6-.984998-1.325-1.034998-2.175l1.439998-.33c.03.63.245 1.14.645 1.53.41.38.915.57 1.515.57.64 0 1.14-.17 1.5-.51.37-.35.555-.78.555-1.29 0-.59-.195-1.04-.585-1.35s-.855-.465-1.395-.465c-.29 0-.575.05-.855.15z" fill="#000"/></svg>